<?xml version="1.0" encoding="utf-8"?>
<!-- Generator: Adobe Illustrator 25.0.1, SVG Export Plug-In . SVG Version: 6.00 Build 0)  -->
<svg version="1.1" id="Layer_1" xmlns="http://www.w3.org/2000/svg" xmlns:xlink="http://www.w3.org/1999/xlink" x="0px" y="0px"
	 viewBox="0 0 595.28 841.89" style="enable-background:new 0 0 595.28 841.89;" xml:space="preserve">
<path d="M196.61,255.44c-0.27-0.27-0.49-0.57-0.69-0.88l-11.28-11.28v25.63c0,0.23-0.02,0.44-0.04,0.66v123.58h15V258.43
	L196.61,255.44z"/>
<path d="M290.91,390.02v-27.8c0-0.4,0.04-0.77,0.11-1.12V240.94h-15v134.2L290.91,390.02z"/>
<path d="M199.68,258.51l-3.07-3.07c-0.27-0.27-0.49-0.57-0.69-0.88l-11.28-11.28v23.76l89.43,106.16c0.08,0.07,0.16,0.14,0.24,0.22
	l16.6,16.6v-23.21L199.68,258.51z"/>
<rect x="230.94" y="228.24" width="60.08" height="12.7"/>
<rect x="230.94" y="228.24" width="17.57" height="212.6"/>
<polygon points="230.94,173.53 230.94,219.17 290.91,219.17 290.91,173.53 277.02,196.35 262.98,173.53 248.52,198.03 "/>
</svg>
